<svg width="43.000000" height="43.000000" viewBox="0 0 43 43" fill="none" xmlns="http://www.w3.org/2000/svg" xmlns:xlink="http://www.w3.org/1999/xlink">
	<desc>
			Created with Pixso.
	</desc>
	<defs>
		<clipPath id="clip6_32">
			<rect id="fe:search" rx="0.000000" width="41.208332" height="41.208332" transform="translate(0.895833 0.895833)" fill="white" fill-opacity="0"/>
		</clipPath>
	</defs>
	<rect id="fe:search" rx="0.000000" width="41.208332" height="41.208332" transform="translate(0.895833 0.895833)" fill="#FFFFFF" fill-opacity="0"/>
	<g clip-path="url(#clip6_32)">
		<path id="Vector" d="M29.24 26.69L38.88 36.33C39.22 36.67 39.41 37.13 39.41 37.61C39.41 38.09 39.22 38.55 38.88 38.88C38.54 39.22 38.08 39.41 37.6 39.41C37.12 39.41 36.67 39.22 36.33 38.88L26.69 29.24C23.81 31.48 20.18 32.53 16.55 32.18C12.93 31.84 9.56 30.12 7.16 27.39C4.75 24.65 3.47 21.1 3.58 17.46C3.7 13.82 5.2 10.35 7.78 7.78C10.35 5.2 13.81 3.7 17.46 3.59C21.1 3.47 24.65 4.75 27.39 7.16C30.12 9.57 31.83 12.93 32.18 16.56C32.52 20.18 31.47 23.81 29.24 26.69L29.24 26.69ZM17.91 28.66C20.76 28.66 23.5 27.53 25.51 25.51C27.53 23.5 28.66 20.76 28.66 17.91C28.66 15.06 27.53 12.33 25.51 10.31C23.5 8.29 20.76 7.16 17.91 7.16C15.06 7.16 12.33 8.29 10.31 10.31C8.29 12.33 7.16 15.06 7.16 17.91C7.16 20.76 8.29 23.5 10.31 25.51C12.33 27.53 15.06 28.66 17.91 28.66Z" fill="#FFFFFF" fill-opacity="1.000000" fill-rule="evenodd"/>
	</g>
</svg>
